<?xml version="1.0" encoding="utf-8"?><!DOCTYPE svg PUBLIC "-//W3C//DTD SVG 1.1//EN" "http://www.w3.org/Graphics/SVG/1.1/DTD/svg11.dtd"><svg xmlns="http://www.w3.org/2000/svg" width="400" height="400" viewBox="0 0 34 34" shape-rendering="crispEdges"><path fill="#ffffff" d="M0 0h34v34H0z"/><path stroke="#000000" d="M0.5 1h7m2 0h2m2 0h1m3 0h4m2 0h1m2 0h7M0.5 2h1m5 0h1m3 0h1m1 0h6m4 0h1m3 0h1m5 0h1M0.5 3h1m1 0h3m1 0h1m1 0h3m2 0h1m2 0h3m1 0h3m3 0h1m1 0h3m1 0h1M0.5 4h1m1 0h3m1 0h1m1 0h2m4 0h1m1 0h1m2 0h1m2 0h1m1 0h1m1 0h1m1 0h3m1 0h1M0.5 5h1m1 0h3m1 0h1m1 0h1m1 0h2m1 0h1m1 0h1m2 0h1m2 0h3m2 0h1m1 0h3m1 0h1M0.5 6h1m5 0h1m1 0h1m2 0h1m1 0h4m3 0h1m3 0h1m1 0h1m5 0h1M0.5 7h7m1 0h1m1 0h1m1 0h1m1 0h1m1 0h1m1 0h1m1 0h1m1 0h1m1 0h1m1 0h7M8.5 8h1m5 0h2m5 0h1M0.5 9h1m1 0h5m4 0h5m1 0h1m1 0h1m6 0h5M1.5 10h2m1 0h2m2 0h1m5 0h1m1 0h1m2 0h3m1 0h1m2 0h2m1 0h2m1 0h1M0.5 11h4m2 0h1m1 0h1m3 0h1m2 0h2m1 0h1m1 0h1m3 0h2m2 0h1m1 0h2M0.5 12h1m2 0h2m2 0h2m1 0h1m3 0h2m5 0h1m2 0h2m2 0h5M0.5 13h4m2 0h4m1 0h1m3 0h1m2 0h1m4 0h1m1 0h1m1 0h3M0.5 14h1m2 0h1m1 0h1m4 0h1m1 0h1m1 0h4m1 0h2m2 0h1m2 0h1m2 0h1m1 0h2M1.5 15h2m3 0h2m1 0h2m1 0h1m5 0h1m1 0h1m1 0h1m2 0h2m1 0h2m1 0h1M3.5 16h2m2 0h3m4 0h1m1 0h1m1 0h1m2 0h1m2 0h3m2 0h2M0.5 17h1m1 0h3m1 0h1m6 0h1m3 0h1m4 0h1m1 0h2m1 0h2m3 0h1M0.5 18h3m1 0h1m2 0h1m2 0h1m5 0h2m1 0h2m2 0h1m2 0h2m1 0h2m1 0h1M0.5 19h1m1 0h2m1 0h2m4 0h3m1 0h1m1 0h1m2 0h3m1 0h5m1 0h2M1.5 20h1m2 0h1m2 0h1m1 0h3m3 0h8m3 0h5m1 0h1M0.5 21h2m2 0h8m4 0h1m2 0h1m2 0h1m1 0h2m1 0h3M0.5 22h1m2 0h1m1 0h1m6 0h2m1 0h1m2 0h6m2 0h1m2 0h2m1 0h1M0.5 23h1m1 0h2m1 0h2m2 0h2m1 0h1m2 0h4m5 0h2m4 0h2M0.5 24h1m1 0h2m3 0h1m2 0h2m1 0h1m1 0h1m3 0h1m1 0h6m1 0h3M0.5 25h1m2 0h6m2 0h2m1 0h2m1 0h1m4 0h1m1 0h5m2 0h1M8.5 26h2m1 0h2m3 0h1m1 0h2m1 0h1m1 0h2m3 0h1m1 0h3M0.5 27h7m4 0h1m1 0h1m1 0h2m1 0h1m1 0h1m2 0h2m1 0h1m1 0h1m1 0h2M0.5 28h1m5 0h1m1 0h1m1 0h1m1 0h2m1 0h2m3 0h5m3 0h4M0.5 29h1m1 0h3m1 0h1m1 0h2m4 0h2m2 0h2m2 0h1m1 0h6M0.5 30h1m1 0h3m1 0h1m1 0h1m2 0h6m2 0h2m2 0h3m2 0h5M0.5 31h1m1 0h3m1 0h1m1 0h2m1 0h1m6 0h1m1 0h1m1 0h1m3 0h2m1 0h2M0.5 32h1m5 0h1m3 0h2m2 0h1m1 0h1m4 0h3m1 0h1m2 0h1m1 0h1M0.5 33h7m1 0h2m2 0h1m1 0h1m2 0h1m4 0h4m1 0h1m3 0h1"/></svg>
